<?xml version="1.0" encoding="UTF-8" standalone="no"?>
<!DOCTYPE svg PUBLIC "-//W3C//DTD SVG 1.1//EN"
 "http://www.w3.org/Graphics/SVG/1.1/DTD/svg11.dtd">
<!-- Generated by graphviz version 2.40.1 (20161225.0304)
 -->
<!-- Title: G Pages: 1 -->
<svg width="351pt" height="178pt"
 viewBox="0.00 0.00 350.76 178.00" xmlns="http://www.w3.org/2000/svg" xmlns:xlink="http://www.w3.org/1999/xlink">
<g id="graph0" class="graph" transform="scale(1 1) rotate(0) translate(4 174)">
<title>G</title>
<polygon fill="#ffffff" stroke="transparent" points="-4,4 -4,-174 346.7578,-174 346.7578,4 -4,4"/>
<text text-anchor="middle" x="171.3789" y="-156.4" font-family="gotham-book,sans-serif" font-size="12.00" fill="#000000">5ce4c17e31fb77644236</text>
<g id="clust1" class="cluster">
<title>cluster_0</title>
<polygon fill="#f2f2f2" stroke="#8c8c8c" points="8,-36 8,-142 334.7578,-142 334.7578,-36 8,-36"/>
<text text-anchor="middle" x="171.3789" y="-128.4" font-family="gotham-book,sans-serif" font-size="12.00" fill="#474747">main [entry] [initial]</text>
</g>
<!-- 0 -->
<g id="node1" class="node">
<title>0</title>
<polygon fill="#cdefc2" stroke="#51b530" points="53.0322,-100.3333 15.9893,-100.3333 15.9893,-77.6667 53.0322,-77.6667 53.0322,-72 70.0322,-89 53.0322,-106 53.0322,-100.3333"/>
<text text-anchor="middle" x="43.0107" y="-85.4" font-family="gotham-book,sans-serif" font-size="12.00" fill="#185902">app.js</text>
</g>
<!-- 1 -->
<g id="node2" class="node">
<title>1</title>
<polygon fill="#cdefc2" stroke="#51b530" points="192.2323,-70 112.5158,-70 112.5158,-44 192.2323,-44 192.2323,-70"/>
<text text-anchor="middle" x="152.374" y="-53.4" font-family="gotham-book,sans-serif" font-size="12.00" fill="#185902">module.js</text>
</g>
<!-- 0&#45;&gt;1 -->
<g id="edge1" class="edge">
<title>0&#45;&gt;1</title>
<path fill="none" stroke="#b53030" d="M57.7578,-71.6873C57.7578,-64.5864 57.7578,-58 57.7578,-58 57.7578,-58 105.0225,-58 105.0225,-58"/>
<polygon fill="#b53030" stroke="#b53030" points="105.0225,-60.6251 112.5225,-58 105.0224,-55.3751 105.0225,-60.6251"/>
</g>
<!-- 2 -->
<g id="node3" class="node">
<title>2</title>
<polygon fill="#cdefc2" stroke="#51b530" points="198.5796,-114 106.1685,-114 106.1685,-88 198.5796,-88 198.5796,-114"/>
<text text-anchor="middle" x="152.374" y="-97.4" font-family="gotham-book,sans-serif" font-size="12.00" fill="#185902">module_b.js</text>
</g>
<!-- 0&#45;&gt;2 -->
<g id="edge2" class="edge">
<title>0&#45;&gt;2</title>
<path fill="none" stroke="#b53030" d="M70.0444,-97C70.0444,-97 98.5685,-97 98.5685,-97"/>
<polygon fill="#b53030" stroke="#b53030" points="98.5685,-99.6251 106.0685,-97 98.5684,-94.3751 98.5685,-99.6251"/>
</g>
<!-- 3 -->
<g id="node4" class="node">
<title>3</title>
<polygon fill="#cdefc2" stroke="#51b530" points="326.7734,-114 234.7109,-114 234.7109,-88 326.7734,-88 326.7734,-114"/>
<text text-anchor="middle" x="280.7422" y="-97.4" font-family="gotham-book,sans-serif" font-size="12.00" fill="#185902">module_c.js</text>
</g>
<!-- 2&#45;&gt;3 -->
<g id="edge3" class="edge">
<title>2&#45;&gt;3</title>
<path fill="none" stroke="#b53030" d="M198.7179,-101C198.7179,-101 226.9664,-101 226.9664,-101"/>
<polygon fill="#b53030" stroke="#b53030" points="226.9664,-103.6251 234.4664,-101 226.9663,-98.3751 226.9664,-103.6251"/>
</g>
<!-- cluster_0hidden -->
<!-- file_bundle.js -->
<g id="node6" class="node">
<title>file_bundle.js</title>
<polygon fill="#c2cdef" stroke="#3051b5" points="190.4092,-26 114.3389,-26 114.3389,0 190.4092,0 190.4092,-26"/>
<text text-anchor="middle" x="152.374" y="-9.4" font-family="gotham-book,sans-serif" font-size="12.00" fill="#021859">bundle.js</text>
</g>
<!-- cluster_0hidden&#45;&gt;file_bundle.js -->
<g id="edge4" class="edge">
<title>cluster_0hidden&#45;&gt;file_bundle.js</title>
<path fill="none" stroke="#3051b5" d="M43.7578,-36.0017C43.7578,-26.5369 43.7578,-13 43.7578,-13 43.7578,-13 106.58,-13 106.58,-13"/>
<polygon fill="#3051b5" stroke="#3051b5" points="106.58,-15.6251 114.08,-13 106.58,-10.3751 106.58,-15.6251"/>
</g>
</g>
</svg>
